<?xml version="1.0" encoding="UTF-8" standalone="no"?>
<!DOCTYPE svg PUBLIC "-//W3C//DTD SVG 1.1//EN" "http://www.w3.org/Graphics/SVG/1.1/DTD/svg11.dtd">
<svg xmlns="http://www.w3.org/2000/svg" version="1.1" viewBox="0.00 0.00 500.00 500.00">
<path fill="#4ac7f0" d="
  M 180.07 240.14
  L 230.82 152.31
  Q 231.09 151.85 230.95 151.33
  C 227.74 138.84 245.67 137.43 245.78 148.29
  Q 245.84 154.76 238.69 156.12
  Q 238.23 156.21 238.00 156.62
  L 186.90 244.99
  Q 186.65 245.42 186.72 245.91
  Q 187.85 253.05 182.34 255.30
  C 171.37 259.77 166.93 242.05 179.20 240.71
  Q 179.78 240.64 180.07 240.14
  Z
  M 241.06 148.42
  A 2.82 2.82 0.0 0 0 238.24 145.60
  A 2.82 2.82 0.0 0 0 235.42 148.42
  A 2.82 2.82 0.0 0 0 238.24 151.24
  A 2.82 2.82 0.0 0 0 241.06 148.42
  Z
  M 182.28 248.49
  A 2.82 2.82 0.0 0 0 179.46 245.67
  A 2.82 2.82 0.0 0 0 176.64 248.49
  A 2.82 2.82 0.0 0 0 179.46 251.31
  A 2.82 2.82 0.0 0 0 182.28 248.49
  Z"
/>
<path fill="#4ac7f0" d="
  M 209.29 247.76
  L 256.79 247.75
  Q 257.28 247.75 257.64 247.43
  C 269.45 237.25 277.42 257.32 265.02 259.50
  Q 260.33 260.33 257.49 256.41
  Q 257.20 256.00 256.70 256.00
  Q 229.35 256.00 202.00 256.01
  Q 198.98 256.02 197.19 253.80
  Q 196.85 253.38 196.92 252.83
  Q 197.24 250.50 198.79 247.80
  Q 228.51 196.29 258.46 144.90
  C 260.26 141.80 263.76 139.37 266.22 143.49
  C 267.62 145.83 277.07 162.45 278.43 162.69
  C 289.03 164.54 284.73 180.52 274.82 177.16
  Q 268.09 174.87 269.95 166.80
  Q 270.08 166.23 269.78 165.73
  L 263.11 154.37
  A 0.45 0.44 -45.6 0 0 262.34 154.38
  L 209.02 247.30
  A 0.31 0.31 0.0 0 0 209.29 247.76
  Z
  M 279.92 170.07
  A 2.81 2.81 0.0 0 0 277.11 167.26
  A 2.81 2.81 0.0 0 0 274.30 170.07
  A 2.81 2.81 0.0 0 0 277.11 172.88
  A 2.81 2.81 0.0 0 0 279.92 170.07
  Z
  M 266.60 252.20
  A 2.88 2.88 0.0 0 0 263.72 249.32
  A 2.88 2.88 0.0 0 0 260.84 252.20
  A 2.88 2.88 0.0 0 0 263.72 255.08
  A 2.88 2.88 0.0 0 0 266.60 252.20
  Z"
/>
<path fill="#d9d9d9" d="
  M 272.96 228.25
  L 232.53 228.25
  A 0.62 0.62 0.0 0 1 232.00 227.31
  L 253.33 191.69
  A 1.00 0.98 12.7 0 1 254.11 191.21
  Q 269.72 190.05 285.43 190.82
  C 288.02 190.95 292.45 190.96 294.30 193.95
  Q 309.14 217.85 326.85 248.08
  C 329.46 252.53 329.27 255.99 323.21 255.99
  Q 307.34 256.01 291.49 256.00
  Q 289.24 256.00 287.78 253.29
  C 283.30 244.98 278.30 236.85 273.63 228.64
  Q 273.41 228.25 272.96 228.25
  Z"
/>
<path fill="#4ac7f0" d="
  M 258.25 307.20
  L 258.25 316.38
  Q 258.25 317.00 257.62 317.00
  L 252.02 317.00
  Q 251.53 317.00 251.52 316.51
  Q 251.43 303.29 251.55 290.07
  C 251.61 283.89 260.94 285.21 264.75 285.25
  C 269.01 285.31 269.78 289.21 269.75 292.93
  Q 269.68 304.66 269.81 316.41
  Q 269.82 317.00 269.23 317.00
  L 263.63 317.00
  Q 263.00 317.00 263.00 316.37
  L 263.00 306.90
  Q 263.00 306.31 262.41 306.35
  L 258.87 306.55
  Q 258.25 306.59 258.25 307.20
  Z
  M 262.9914 290.2117
  A 0.44 0.44 0.0 0 0 262.5498 289.7733
  L 258.6699 289.7868
  A 0.44 0.44 0.0 0 0 258.2314 290.2283
  L 258.2686 300.8883
  A 0.44 0.44 0.0 0 0 258.7102 301.3267
  L 262.5901 301.3132
  A 0.44 0.44 0.0 0 0 263.0286 300.8717
  L 262.9914 290.2117
  Z"
/>
<path fill="#4ac7f0" d="
  M 285.75 312.10
  L 285.75 307.50
  Q 285.75 307.00 286.25 307.00
  L 291.47 307.00
  Q 292.01 307.00 292.09 307.54
  C 293.73 318.43 286.86 318.05 279.25 317.48
  C 275.45 317.20 274.19 314.35 274.15 310.74
  Q 273.95 295.30 274.37 289.68
  C 274.62 286.32 277.79 285.35 280.89 285.25
  C 287.84 285.04 293.38 284.98 292.18 294.09
  Q 292.12 294.50 291.71 294.50
  L 286.67 294.50
  A 0.97 0.97 0.0 0 1 285.71 293.41
  L 286.08 290.65
  Q 286.18 289.87 285.40 289.85
  L 281.60 289.75
  Q 281.00 289.74 281.00 290.34
  L 281.00 312.24
  Q 281.00 312.98 281.74 312.94
  L 285.15 312.73
  Q 285.75 312.70 285.75 312.10
  Z"
/>
<path fill="#4ac7f0" d="
  M 199.94 294.73
  L 202.53 286.00
  A 0.35 0.35 0.0 0 1 202.86 285.75
  L 208.84 285.75
  A 0.35 0.35 0.0 0 1 209.17 286.21
  L 204.39 301.24
  A 0.35 0.35 0.0 0 0 204.39 301.46
  L 209.82 316.54
  A 0.35 0.35 0.0 0 1 209.49 317.01
  L 203.12 316.99
  A 0.35 0.35 0.0 0 1 202.79 316.74
  L 199.92 307.16
  A 0.35 0.35 0.0 0 0 199.24 307.16
  L 196.37 316.75
  A 0.35 0.35 0.0 0 1 196.04 317.00
  L 189.68 317.00
  A 0.35 0.35 0.0 0 1 189.35 316.53
  L 194.74 301.44
  A 0.35 0.35 0.0 0 0 194.74 301.22
  L 190.03 286.20
  A 0.35 0.35 0.0 0 1 190.37 285.75
  L 196.24 285.75
  A 0.35 0.35 0.0 0 1 196.58 286.00
  L 199.27 294.73
  A 0.35 0.35 0.0 0 0 199.94 294.73
  Z"
/>
<path fill="#4ac7f0" d="
  M 222.25 292.12
  L 222.25 316.39
  A 0.61 0.61 0.0 0 1 221.64 317.00
  L 216.09 317.00
  A 0.61 0.61 0.0 0 1 215.48 316.39
  L 215.51 292.11
  A 0.61 0.61 0.0 0 0 214.90 291.50
  L 210.87 291.50
  A 0.61 0.61 0.0 0 1 210.26 290.89
  L 210.24 286.36
  A 0.61 0.61 0.0 0 1 210.85 285.75
  L 226.64 285.75
  A 0.61 0.61 0.0 0 1 227.25 286.36
  L 227.25 290.87
  A 0.61 0.61 0.0 0 1 226.64 291.48
  L 222.86 291.51
  A 0.61 0.61 0.0 0 0 222.25 292.12
  Z"
/>
<path fill="#4ac7f0" d="
  M 245.57 301.07
  C 248.22 302.73 247.50 311.57 247.28 316.43
  Q 247.26 317.00 246.69 317.00
  L 241.30 317.00
  Q 240.59 317.00 240.58 316.30
  L 240.46 304.85
  Q 240.46 304.25 239.85 304.25
  L 236.96 304.25
  Q 236.43 304.25 236.43 304.78
  L 236.49 316.35
  Q 236.49 317.00 235.84 317.00
  L 230.38 317.00
  Q 229.75 317.00 229.75 316.37
  L 229.75 286.26
  Q 229.75 285.78 230.23 285.78
  Q 236.27 285.67 242.23 285.81
  C 249.14 285.97 249.14 297.10 245.51 300.27
  Q 245.00 300.71 245.57 301.07
  Z
  M 241.0010 290.8821
  A 0.60 0.60 0.0 0 0 240.4041 290.2790
  L 237.0042 290.2612
  A 0.60 0.60 0.0 0 0 236.4010 290.8580
  L 236.3590 298.8779
  A 0.60 0.60 0.0 0 0 236.9559 299.4810
  L 240.3558 299.4988
  A 0.60 0.60 0.0 0 0 240.9590 298.9020
  L 241.0010 290.8821
  Z"
/>
<path fill="#4ac7f0" d="
  M 293.75 291.04
  L 293.75 286.28
  A 0.53 0.53 0.0 0 1 294.28 285.75
  L 309.97 285.75
  A 0.53 0.53 0.0 0 1 310.50 286.28
  L 310.50 290.97
  A 0.53 0.53 0.0 0 1 309.97 291.50
  L 306.03 291.50
  A 0.53 0.53 0.0 0 0 305.50 292.03
  L 305.50 316.47
  A 0.53 0.53 0.0 0 1 304.97 317.00
  L 299.28 317.00
  A 0.53 0.53 0.0 0 1 298.75 316.47
  L 298.75 291.83
  A 0.53 0.53 0.0 0 0 298.18 291.30
  L 294.32 291.57
  A 0.53 0.53 0.0 0 1 293.75 291.04
  Z"
/>
</svg>
